<mxfile host="65bd71144e">
    <diagram id="uKj7T5zhZYZF9wNeOlix" name="Page-1">
        <mxGraphModel dx="2343" dy="1161" grid="0" gridSize="10" guides="1" tooltips="1" connect="1" arrows="1" fold="1" page="0" pageScale="1" pageWidth="827" pageHeight="1169" math="0" shadow="0">
            <root>
                <mxCell id="0"/>
                <mxCell id="1" parent="0"/>
                <mxCell id="5" value="Computer" style="rounded=1;whiteSpace=wrap;html=1;fillColor=#008a00;fontColor=#ffffff;strokeColor=#005700;" vertex="1" parent="1">
                    <mxGeometry x="-393" y="923" width="201" height="133" as="geometry"/>
                </mxCell>
                <mxCell id="6" value="User&lt;br&gt;SPN&lt;br&gt;ScriptPath" style="rounded=1;whiteSpace=wrap;html=1;fillColor=#008a00;fontColor=#ffffff;strokeColor=#005700;" vertex="1" parent="1">
                    <mxGeometry x="-178" y="923" width="201" height="133" as="geometry"/>
                </mxCell>
                <mxCell id="7" value="Group&lt;br&gt;Add Member" style="rounded=1;whiteSpace=wrap;html=1;fillColor=#008a00;fontColor=#ffffff;strokeColor=#005700;" vertex="1" parent="1">
                    <mxGeometry x="37" y="923" width="201" height="133" as="geometry"/>
                </mxCell>
                <mxCell id="8" value="GPO&lt;br&gt;Edit GPO" style="rounded=1;whiteSpace=wrap;html=1;fillColor=#008a00;fontColor=#ffffff;strokeColor=#005700;" vertex="1" parent="1">
                    <mxGeometry x="252" y="923" width="201" height="133" as="geometry"/>
                </mxCell>
                <mxCell id="9" value="Computer&lt;br&gt;Read LAPS&lt;br&gt;Read gMSA" style="rounded=1;whiteSpace=wrap;html=1;fillColor=#0050ef;fontColor=#ffffff;strokeColor=#001DBC;" vertex="1" parent="1">
                    <mxGeometry x="467" y="923" width="201" height="133" as="geometry"/>
                </mxCell>
                <mxCell id="10" value="User&lt;br style=&quot;font-size: 14px;&quot;&gt;Force Change&lt;br style=&quot;font-size: 14px;&quot;&gt;Password" style="rounded=1;whiteSpace=wrap;html=1;fillColor=#0050ef;fontColor=#ffffff;strokeColor=#001DBC;fontSize=14;" vertex="1" parent="1">
                    <mxGeometry x="682" y="923" width="201" height="133" as="geometry"/>
                </mxCell>
                <mxCell id="11" value="Group&lt;br style=&quot;font-size: 14px;&quot;&gt;Add Member" style="rounded=1;whiteSpace=wrap;html=1;fillColor=#0050ef;fontColor=#ffffff;strokeColor=#001DBC;fontSize=14;" vertex="1" parent="1">
                    <mxGeometry x="897" y="923" width="201" height="133" as="geometry"/>
                </mxCell>
                <mxCell id="12" value="Domain&lt;br style=&quot;font-size: 14px;&quot;&gt;DCSync" style="rounded=1;whiteSpace=wrap;html=1;fillColor=#0050ef;fontColor=#ffffff;strokeColor=#001DBC;fontSize=14;" vertex="1" parent="1">
                    <mxGeometry x="1112" y="923" width="201" height="133" as="geometry"/>
                </mxCell>
                <mxCell id="53" style="edgeStyle=elbowEdgeStyle;html=1;fontSize=22;strokeWidth=4;entryX=0;entryY=0.5;entryDx=0;entryDy=0;" edge="1" parent="1" source="13" target="18">
                    <mxGeometry relative="1" as="geometry">
                        <mxPoint x="-32" y="343" as="targetPoint"/>
                        <Array as="points">
                            <mxPoint x="-27" y="623"/>
                        </Array>
                    </mxGeometry>
                </mxCell>
                <mxCell id="13" value="&lt;font style=&quot;font-size: 25px;&quot;&gt;&lt;b&gt;WriteDACL&lt;/b&gt;&lt;/font&gt;" style="rounded=1;whiteSpace=wrap;html=1;fillColor=#FFFF00;fontColor=#000000;strokeColor=#B09500;" vertex="1" parent="1">
                    <mxGeometry x="-119" y="691" width="201" height="133" as="geometry"/>
                </mxCell>
                <mxCell id="52" style="edgeStyle=elbowEdgeStyle;html=1;exitX=0.5;exitY=1;exitDx=0;exitDy=0;entryX=0.5;entryY=1;entryDx=0;entryDy=0;fontSize=22;strokeWidth=4;" edge="1" parent="1" source="14" target="17">
                    <mxGeometry relative="1" as="geometry">
                        <Array as="points">
                            <mxPoint x="-133" y="873"/>
                        </Array>
                    </mxGeometry>
                </mxCell>
                <mxCell id="14" value="WriteOwner" style="rounded=1;whiteSpace=wrap;html=1;fillColor=#FFFF00;fontColor=#000000;strokeColor=#B09500;fontSize=27;fontStyle=1" vertex="1" parent="1">
                    <mxGeometry x="96" y="691" width="201" height="133" as="geometry"/>
                </mxCell>
                <mxCell id="15" value="GenericWrite" style="rounded=1;whiteSpace=wrap;html=1;fillColor=#FFFF00;fontColor=#000000;strokeColor=#B09500;fontSize=27;fontStyle=1" vertex="1" parent="1">
                    <mxGeometry x="311" y="691" width="201" height="133" as="geometry"/>
                </mxCell>
                <mxCell id="16" value="&lt;font style=&quot;font-size: 22px;&quot;&gt;AllExtendedRights&lt;/font&gt;" style="rounded=1;whiteSpace=wrap;html=1;fillColor=#FFFF00;fontColor=#000000;strokeColor=#B09500;fontSize=27;fontStyle=1" vertex="1" parent="1">
                    <mxGeometry x="526" y="691" width="201" height="133" as="geometry"/>
                </mxCell>
                <mxCell id="34" style="edgeStyle=none;html=1;entryX=0;entryY=0.5;entryDx=0;entryDy=0;fontSize=22;strokeWidth=4;exitX=0.829;exitY=0.999;exitDx=0;exitDy=0;exitPerimeter=0;" edge="1" parent="1" source="17" target="13">
                    <mxGeometry relative="1" as="geometry">
                        <Array as="points">
                            <mxPoint x="-285" y="759"/>
                        </Array>
                    </mxGeometry>
                </mxCell>
                <mxCell id="17" value="&lt;font style=&quot;font-size: 35px;&quot;&gt;&lt;b&gt;Owner&lt;/b&gt;&lt;/font&gt;" style="rounded=1;whiteSpace=wrap;html=1;fillColor=#CC0000;fontColor=#ffffff;strokeColor=#CC0000;" vertex="1" parent="1">
                    <mxGeometry x="-451" y="547" width="201" height="133" as="geometry"/>
                </mxCell>
                <mxCell id="18" value="&lt;b&gt;&lt;font style=&quot;font-size: 37px;&quot;&gt;GenericAll&lt;/font&gt;&lt;/b&gt;" style="rounded=1;whiteSpace=wrap;html=1;fillColor=#CC0000;fontColor=#ffffff;strokeColor=#CC0000;" vertex="1" parent="1">
                    <mxGeometry x="13" y="311" width="312" height="133" as="geometry"/>
                </mxCell>
                <mxCell id="19" value="Domain&lt;font style=&quot;&quot;&gt;&lt;i style=&quot;&quot;&gt;&lt;br style=&quot;&quot;&gt;&lt;font style=&quot;font-size: 21px; font-weight: normal;&quot;&gt;Replicate Directory Changes&lt;/font&gt;&lt;/i&gt;&lt;/font&gt;" style="rounded=1;whiteSpace=wrap;html=1;fillColor=#10295C;fontColor=#ffffff;strokeColor=#001DBC;fontSize=27;fontStyle=1" vertex="1" parent="1">
                    <mxGeometry x="1112" y="923" width="201" height="133" as="geometry"/>
                </mxCell>
                <mxCell id="20" value="Group&lt;br style=&quot;font-size: 27px;&quot;&gt;&lt;span style=&quot;font-weight: normal;&quot;&gt;&lt;i&gt;&lt;font style=&quot;font-size: 21px;&quot;&gt;Add Member&lt;/font&gt;&lt;/i&gt;&lt;/span&gt;" style="rounded=1;whiteSpace=wrap;html=1;fillColor=#10295C;fontColor=#ffffff;strokeColor=#001DBC;fontSize=27;fontStyle=1" vertex="1" parent="1">
                    <mxGeometry x="897" y="923" width="201" height="133" as="geometry"/>
                </mxCell>
                <mxCell id="21" value="User&lt;font style=&quot;&quot;&gt;&lt;i style=&quot;font-weight: normal;&quot;&gt;&lt;br style=&quot;&quot;&gt;&lt;font style=&quot;font-size: 21px;&quot;&gt;Must change pw at logon&lt;/font&gt;&lt;/i&gt;&lt;/font&gt;" style="rounded=1;whiteSpace=wrap;html=1;fillColor=#10295C;fontColor=#ffffff;strokeColor=#001DBC;fontSize=27;fontStyle=1" vertex="1" parent="1">
                    <mxGeometry x="682" y="923" width="201" height="133" as="geometry"/>
                </mxCell>
                <mxCell id="22" value="Computer&lt;br style=&quot;font-size: 27px;&quot;&gt;&lt;span style=&quot;font-weight: normal; font-size: 21px;&quot;&gt;&lt;i&gt;Read LAPS&lt;br style=&quot;&quot;&gt;Read gMSA&lt;/i&gt;&lt;/span&gt;" style="rounded=1;whiteSpace=wrap;html=1;fillColor=#10295C;fontColor=#ffffff;strokeColor=#001DBC;fontSize=27;fontStyle=1" vertex="1" parent="1">
                    <mxGeometry x="467" y="923" width="201" height="133" as="geometry"/>
                </mxCell>
                <mxCell id="23" value="GPO&lt;br style=&quot;font-size: 27px;&quot;&gt;&lt;span style=&quot;font-weight: normal;&quot;&gt;&lt;i&gt;&lt;font style=&quot;font-size: 21px;&quot;&gt;Edit GPO&lt;/font&gt;&lt;/i&gt;&lt;/span&gt;" style="rounded=1;whiteSpace=wrap;html=1;fillColor=#336600;fontColor=#ffffff;strokeColor=#005700;fontSize=27;fontStyle=1" vertex="1" parent="1">
                    <mxGeometry x="252" y="923" width="201" height="133" as="geometry"/>
                </mxCell>
                <mxCell id="24" value="Group&lt;br style=&quot;font-size: 27px;&quot;&gt;Add Member" style="rounded=1;whiteSpace=wrap;html=1;fillColor=#008a00;fontColor=#ffffff;strokeColor=#005700;fontSize=27;fontStyle=1" vertex="1" parent="1">
                    <mxGeometry x="37" y="923" width="201" height="133" as="geometry"/>
                </mxCell>
                <mxCell id="25" value="User&lt;br style=&quot;font-size: 27px;&quot;&gt;SPN&lt;br style=&quot;font-size: 27px;&quot;&gt;ScriptPath" style="rounded=1;whiteSpace=wrap;html=1;fillColor=#008a00;fontColor=#ffffff;strokeColor=#005700;fontSize=27;fontStyle=1" vertex="1" parent="1">
                    <mxGeometry x="-178" y="923" width="201" height="133" as="geometry"/>
                </mxCell>
                <mxCell id="26" value="Computer" style="rounded=1;whiteSpace=wrap;html=1;fillColor=#008a00;fontColor=#ffffff;strokeColor=#005700;fontSize=27;fontStyle=1" vertex="1" parent="1">
                    <mxGeometry x="-393" y="923" width="201" height="133" as="geometry"/>
                </mxCell>
                <mxCell id="27" value="Computer" style="rounded=1;whiteSpace=wrap;html=1;fillColor=#336600;fontColor=#ffffff;strokeColor=#005700;fontSize=27;fontStyle=1" vertex="1" parent="1">
                    <mxGeometry x="-393" y="923" width="201" height="133" as="geometry"/>
                </mxCell>
                <mxCell id="28" value="User&lt;br style=&quot;font-size: 27px;&quot;&gt;&lt;i style=&quot;font-weight: normal; font-size: 21px;&quot;&gt;SPN&lt;br style=&quot;&quot;&gt;ScriptPath&lt;/i&gt;" style="rounded=1;whiteSpace=wrap;html=1;fillColor=#336600;fontColor=#ffffff;strokeColor=#005700;fontSize=27;fontStyle=1" vertex="1" parent="1">
                    <mxGeometry x="-178" y="923" width="201" height="133" as="geometry"/>
                </mxCell>
                <mxCell id="29" value="Group&lt;br style=&quot;font-size: 27px;&quot;&gt;&lt;font style=&quot;font-size: 21px;&quot;&gt;&lt;i style=&quot;font-weight: normal;&quot;&gt;Add Member&lt;/i&gt;&lt;/font&gt;" style="rounded=1;whiteSpace=wrap;html=1;fillColor=#336600;fontColor=#ffffff;strokeColor=#005700;fontSize=27;fontStyle=1" vertex="1" parent="1">
                    <mxGeometry x="37" y="923" width="201" height="133" as="geometry"/>
                </mxCell>
                <mxCell id="44" value="" style="endArrow=none;html=1;fontSize=22;strokeWidth=4;" edge="1" parent="1">
                    <mxGeometry width="50" height="50" relative="1" as="geometry">
                        <mxPoint x="114" y="644" as="sourcePoint"/>
                        <mxPoint x="114" y="444" as="targetPoint"/>
                    </mxGeometry>
                </mxCell>
                <mxCell id="45" value="" style="endArrow=none;html=1;fontSize=22;strokeWidth=4;" edge="1" parent="1">
                    <mxGeometry width="50" height="50" relative="1" as="geometry">
                        <mxPoint x="626" y="645" as="sourcePoint"/>
                        <mxPoint x="-15" y="646" as="targetPoint"/>
                    </mxGeometry>
                </mxCell>
                <mxCell id="48" value="" style="edgeStyle=none;orthogonalLoop=1;jettySize=auto;html=1;fontSize=22;strokeWidth=4;" edge="1" parent="1">
                    <mxGeometry width="100" relative="1" as="geometry">
                        <mxPoint x="-13" y="646" as="sourcePoint"/>
                        <mxPoint x="-13" y="684" as="targetPoint"/>
                        <Array as="points"/>
                    </mxGeometry>
                </mxCell>
                <mxCell id="49" value="" style="edgeStyle=none;orthogonalLoop=1;jettySize=auto;html=1;fontSize=22;strokeWidth=4;" edge="1" parent="1">
                    <mxGeometry width="100" relative="1" as="geometry">
                        <mxPoint x="189" y="647" as="sourcePoint"/>
                        <mxPoint x="189" y="685" as="targetPoint"/>
                        <Array as="points"/>
                    </mxGeometry>
                </mxCell>
                <mxCell id="50" value="" style="edgeStyle=none;orthogonalLoop=1;jettySize=auto;html=1;fontSize=22;strokeWidth=4;" edge="1" parent="1">
                    <mxGeometry width="100" relative="1" as="geometry">
                        <mxPoint x="425" y="646" as="sourcePoint"/>
                        <mxPoint x="425" y="684" as="targetPoint"/>
                        <Array as="points"/>
                    </mxGeometry>
                </mxCell>
                <mxCell id="51" value="" style="edgeStyle=none;orthogonalLoop=1;jettySize=auto;html=1;fontSize=22;strokeWidth=4;" edge="1" parent="1">
                    <mxGeometry width="100" relative="1" as="geometry">
                        <mxPoint x="624" y="646" as="sourcePoint"/>
                        <mxPoint x="624" y="684" as="targetPoint"/>
                        <Array as="points"/>
                    </mxGeometry>
                </mxCell>
                <mxCell id="54" value="" style="endArrow=none;html=1;fontSize=22;strokeWidth=4;" edge="1" parent="1">
                    <mxGeometry width="50" height="50" relative="1" as="geometry">
                        <mxPoint x="410" y="898" as="sourcePoint"/>
                        <mxPoint x="-278" y="899" as="targetPoint"/>
                    </mxGeometry>
                </mxCell>
                <mxCell id="56" value="" style="endArrow=none;html=1;fontSize=22;entryX=0.5;entryY=1;entryDx=0;entryDy=0;strokeWidth=4;" edge="1" parent="1">
                    <mxGeometry width="50" height="50" relative="1" as="geometry">
                        <mxPoint x="408" y="897" as="sourcePoint"/>
                        <mxPoint x="407" y="824" as="targetPoint"/>
                    </mxGeometry>
                </mxCell>
                <mxCell id="58" value="" style="endArrow=classic;html=1;strokeWidth=4;fontSize=22;" edge="1" parent="1">
                    <mxGeometry width="50" height="50" relative="1" as="geometry">
                        <mxPoint x="353" y="898" as="sourcePoint"/>
                        <mxPoint x="354" y="921" as="targetPoint"/>
                    </mxGeometry>
                </mxCell>
                <mxCell id="59" value="" style="endArrow=classic;html=1;strokeWidth=4;fontSize=22;entryX=0.53;entryY=-0.003;entryDx=0;entryDy=0;entryPerimeter=0;" edge="1" parent="1" target="29">
                    <mxGeometry width="50" height="50" relative="1" as="geometry">
                        <mxPoint x="143" y="900" as="sourcePoint"/>
                        <mxPoint x="144" y="923" as="targetPoint"/>
                    </mxGeometry>
                </mxCell>
                <mxCell id="60" value="" style="endArrow=classic;html=1;strokeWidth=4;fontSize=22;entryX=0.53;entryY=-0.003;entryDx=0;entryDy=0;entryPerimeter=0;" edge="1" parent="1">
                    <mxGeometry width="50" height="50" relative="1" as="geometry">
                        <mxPoint x="-77.77" y="900.4" as="sourcePoint"/>
                        <mxPoint x="-77.2399999999998" y="923.0009999999999" as="targetPoint"/>
                    </mxGeometry>
                </mxCell>
                <mxCell id="61" value="" style="endArrow=classic;html=1;strokeWidth=4;fontSize=22;entryX=0.53;entryY=-0.003;entryDx=0;entryDy=0;entryPerimeter=0;" edge="1" parent="1">
                    <mxGeometry width="50" height="50" relative="1" as="geometry">
                        <mxPoint x="-276" y="900.4000000000001" as="sourcePoint"/>
                        <mxPoint x="-275.4699999999998" y="923.0009999999997" as="targetPoint"/>
                    </mxGeometry>
                </mxCell>
                <mxCell id="62" value="" style="endArrow=none;html=1;fontSize=22;entryX=0.5;entryY=1;entryDx=0;entryDy=0;strokeWidth=4;" edge="1" parent="1">
                    <mxGeometry width="50" height="50" relative="1" as="geometry">
                        <mxPoint x="626.67" y="897" as="sourcePoint"/>
                        <mxPoint x="625.67" y="824.0000000000002" as="targetPoint"/>
                    </mxGeometry>
                </mxCell>
                <mxCell id="63" value="" style="endArrow=none;html=1;fontSize=22;strokeWidth=4;" edge="1" parent="1">
                    <mxGeometry width="50" height="50" relative="1" as="geometry">
                        <mxPoint x="1232" y="898" as="sourcePoint"/>
                        <mxPoint x="544" y="899" as="targetPoint"/>
                    </mxGeometry>
                </mxCell>
                <mxCell id="64" value="" style="endArrow=classic;html=1;strokeWidth=4;fontSize=22;entryX=0.53;entryY=-0.003;entryDx=0;entryDy=0;entryPerimeter=0;" edge="1" parent="1">
                    <mxGeometry width="50" height="50" relative="1" as="geometry">
                        <mxPoint x="-275" y="900.4000000000001" as="sourcePoint"/>
                        <mxPoint x="-274.4699999999998" y="923.0009999999997" as="targetPoint"/>
                    </mxGeometry>
                </mxCell>
                <mxCell id="65" value="" style="endArrow=classic;html=1;strokeWidth=4;fontSize=22;entryX=0.53;entryY=-0.003;entryDx=0;entryDy=0;entryPerimeter=0;" edge="1" parent="1">
                    <mxGeometry width="50" height="50" relative="1" as="geometry">
                        <mxPoint x="-76.76999999999998" y="900.4000000000001" as="sourcePoint"/>
                        <mxPoint x="-76.23999999999978" y="923.0009999999997" as="targetPoint"/>
                    </mxGeometry>
                </mxCell>
                <mxCell id="66" value="" style="endArrow=classic;html=1;strokeWidth=4;fontSize=22;entryX=0.53;entryY=-0.003;entryDx=0;entryDy=0;entryPerimeter=0;" edge="1" parent="1">
                    <mxGeometry width="50" height="50" relative="1" as="geometry">
                        <mxPoint x="-274" y="900.4000000000001" as="sourcePoint"/>
                        <mxPoint x="-273.4699999999998" y="923.0009999999997" as="targetPoint"/>
                    </mxGeometry>
                </mxCell>
                <mxCell id="67" value="" style="endArrow=classic;html=1;strokeWidth=4;fontSize=22;entryX=0.53;entryY=-0.003;entryDx=0;entryDy=0;entryPerimeter=0;" edge="1" parent="1">
                    <mxGeometry width="50" height="50" relative="1" as="geometry">
                        <mxPoint x="-75.76999999999998" y="900.4000000000001" as="sourcePoint"/>
                        <mxPoint x="-75.23999999999978" y="923.0009999999997" as="targetPoint"/>
                    </mxGeometry>
                </mxCell>
                <mxCell id="68" value="" style="endArrow=classic;html=1;strokeWidth=4;fontSize=22;entryX=0.53;entryY=-0.003;entryDx=0;entryDy=0;entryPerimeter=0;" edge="1" parent="1">
                    <mxGeometry width="50" height="50" relative="1" as="geometry">
                        <mxPoint x="144" y="900" as="sourcePoint"/>
                        <mxPoint x="144.52999999999997" y="922.6010000000001" as="targetPoint"/>
                    </mxGeometry>
                </mxCell>
                <mxCell id="87" value="" style="endArrow=classic;html=1;strokeWidth=4;fontSize=22;entryX=0.393;entryY=-0.001;entryDx=0;entryDy=0;entryPerimeter=0;" edge="1" parent="1" target="22">
                    <mxGeometry width="50" height="50" relative="1" as="geometry">
                        <mxPoint x="546" y="900" as="sourcePoint"/>
                        <mxPoint x="547" y="923" as="targetPoint"/>
                    </mxGeometry>
                </mxCell>
                <mxCell id="88" value="" style="endArrow=classic;html=1;strokeWidth=4;fontSize=22;entryX=0.393;entryY=-0.001;entryDx=0;entryDy=0;entryPerimeter=0;" edge="1" parent="1">
                    <mxGeometry width="50" height="50" relative="1" as="geometry">
                        <mxPoint x="782.36" y="900.13" as="sourcePoint"/>
                        <mxPoint x="782.3530000000002" y="922.997" as="targetPoint"/>
                    </mxGeometry>
                </mxCell>
                <mxCell id="89" value="" style="endArrow=classic;html=1;strokeWidth=4;fontSize=22;entryX=0.393;entryY=-0.001;entryDx=0;entryDy=0;entryPerimeter=0;" edge="1" parent="1">
                    <mxGeometry width="50" height="50" relative="1" as="geometry">
                        <mxPoint x="1003.0100000000003" y="900.1300000000001" as="sourcePoint"/>
                        <mxPoint x="1003.003" y="922.9969999999998" as="targetPoint"/>
                    </mxGeometry>
                </mxCell>
                <mxCell id="90" value="" style="endArrow=classic;html=1;strokeWidth=4;fontSize=22;entryX=0.393;entryY=-0.001;entryDx=0;entryDy=0;entryPerimeter=0;" edge="1" parent="1">
                    <mxGeometry width="50" height="50" relative="1" as="geometry">
                        <mxPoint x="1230.0100000000002" y="898.0000000000001" as="sourcePoint"/>
                        <mxPoint x="1230.0030000000002" y="920.8669999999998" as="targetPoint"/>
                    </mxGeometry>
                </mxCell>
            </root>
        </mxGraphModel>
    </diagram>
</mxfile>